<?xml version="1.0" encoding="utf-8"?>
<!-- Generator: Adobe Illustrator 16.0.0, SVG Export Plug-In . SVG Version: 6.00 Build 0)  -->
<!DOCTYPE svg PUBLIC "-//W3C//DTD SVG 1.1//EN" "http://www.w3.org/Graphics/SVG/1.1/DTD/svg11.dtd">
<svg version="1.1" id="Layer_1" xmlns="http://www.w3.org/2000/svg" xmlns:xlink="http://www.w3.org/1999/xlink" x="0px" y="0px"
	 width="16px" height="16px" viewBox="0 0 16 16" enable-background="new 0 0 16 16" xml:space="preserve">
<path d="M15.9,13.5l-7-13C8.7,0.2,8.4,0,8,0S7.3,0.2,7.1,0.5l-7,13c-0.2,0.3-0.2,0.7,0,1C0.3,14.8,0.6,15,1,15h14
	c0.3,0,0.7-0.2,0.9-0.5C16,14.2,16,13.8,15.9,13.5z M6.8,4.8h1.6c0.3,0,0.4,0.1,0.4,0.4v2.1c0,0.3-0.3,2.8-0.3,3h-1
	c-0.1,0-0.2,0-0.3-0.1C7.1,10.1,7.1,10.1,7.1,9.9c0-0.2-0.3-3.101-0.3-3.3V4.8z M8.7,12.9c-0.2,0.199-0.5,0.3-0.9,0.3
	C7.4,13.2,7.2,13.1,7,13s-0.3-0.4-0.3-0.8c0-0.4,0.1-0.601,0.3-0.8C7.2,11.2,7.5,11.1,7.9,11.1S8.6,11.2,8.8,11.4
	C8.9,11.5,9,11.8,9,12.1C9,12.5,8.9,12.7,8.7,12.9z"/>
</svg>
