<?xml version="1.0" encoding="utf-8"?>
<!-- Generator: Adobe Illustrator 16.0.0, SVG Export Plug-In . SVG Version: 6.00 Build 0)  -->
<!DOCTYPE svg PUBLIC "-//W3C//DTD SVG 1.1//EN" "http://www.w3.org/Graphics/SVG/1.1/DTD/svg11.dtd">
<svg version="1.1" id="Layer_1" xmlns="http://www.w3.org/2000/svg" xmlns:xlink="http://www.w3.org/1999/xlink" x="0px" y="0px"
	 width="32px" height="32px" viewBox="0 0 32 32" enable-background="new 0 0 32 32" xml:space="preserve">
<g>
	<rect x="7" y="6" width="2" height="7"/>
	<rect x="3" y="10" width="2" height="3"/>
	<rect x="11" y="8" width="2" height="5"/>
	<path d="M0,2v27h31V2H0z M15,28H1V16h14V28z M15,15H1V3h14V15z M30,28H16V16h14V28z M30,15H16V3h14V15z"/>
	<rect x="18" y="18" width="3" height="2"/>
	<rect x="18" y="21" width="9" height="2"/>
	<rect x="18" y="24" width="6" height="2"/>
	<g>
		<polygon points="19.4,13.3 18.6,12.7 21.9,8.2 24,10.3 27.6,5.7 28.4,6.3 24,11.7 22.1,9.8 		"/>
	</g>
	<circle cx="8" cy="22" r="4"/>
</g>
</svg>
