<?xml version="1.0" encoding="utf-8"?>
<!-- Generator: Adobe Illustrator 16.0.0, SVG Export Plug-In . SVG Version: 6.00 Build 0)  -->
<!DOCTYPE svg PUBLIC "-//W3C//DTD SVG 1.1//EN" "http://www.w3.org/Graphics/SVG/1.1/DTD/svg11.dtd">
<svg version="1.1" id="Layer_1" xmlns="http://www.w3.org/2000/svg" xmlns:xlink="http://www.w3.org/1999/xlink" x="0px" y="0px"
	 width="24px" height="24px" viewBox="-0.5 0.5 24 24" enable-background="new -0.5 0.5 24 24" xml:space="preserve">
<symbol  id="New_Symbol_166" viewBox="-3.508 -3.983 7.016 7.966">
	<g id="_x31_6_3_">
		<g>
			<path d="M3.284,0.384C2.824,0.65-2.563,3.761-2.832,3.915c-0.337,0.192-0.677-0.052-0.677-0.381c0-0.254,0-6.711,0-7.078
				c0-0.363,0.377-0.539,0.663-0.38c0.392,0.218,5.798,3.345,6.129,3.54C3.581-0.208,3.585,0.208,3.284,0.384z"/>
		</g>
	</g>
</symbol>
<symbol  id="New_Symbol_68" viewBox="-6 -6 12 12">
	<g id="_x31_6_1_">
		<g>
			<path d="M-1.5,6H-6V5h5.5L-1.5,6z M1,5L0,4h-6V-6H6V5H1z"/>
		</g>
	</g>
</symbol>
<g id="file" display="none">
	<g id="Doc_16_3_" display="inline">
		<g>
			<path d="M20,7h-0.016L14,0H0v24h20.012L20,7z M19,23H1V1h12.998l-0.014,6H19V23z M4,15h12v-1H4V15z M4,19h12v-1H4V19z M4,11h12
				v-1H4V11z"/>
		</g>
	</g>
</g>
<g id="java-script-file" display="none">
	<path display="inline" d="M9.44,16.973c0.472,0.34,1.31,0.701,2.109,0.701c1.165,0,1.711-0.643,1.711-1.441
		c0-0.84-0.455-1.301-1.638-1.78c-1.583-0.62-2.329-1.581-2.329-2.741c0-1.561,1.146-2.841,3.039-2.841
		c0.891,0,1.673,0.279,2.163,0.6l-0.399,1.28c-0.344-0.24-0.98-0.56-1.8-0.56c-0.946,0-1.473,0.599-1.473,1.319
		c0,0.801,0.527,1.162,1.672,1.642c1.526,0.641,2.312,1.479,2.312,2.92c0,1.701-1.201,2.902-3.293,2.902
		c-0.962,0-1.855-0.261-2.474-0.662L9.44,16.973z"/>
	<path display="inline" d="M6.34,8.869v6.552c0,1.935-0.971,2.244-1.74,2.244c-0.425,0-0.806-0.09-1.069-0.192l-0.267,1.243
		c0.322,0.132,0.894,0.234,1.362,0.234c1.699,0,3.154-0.854,3.154-3.478V8.869"/>
	<g id="Doc_16_2_" display="inline">
		<g>
			<path d="M20,7h-0.016L14,0H0v24h20.012L20,7z M19,23H1V1h12.998l-0.014,6H19V23z"/>
		</g>
	</g>
</g>
<g id="css-file" display="none">
	<path display="inline" d="M7.634,16.973c0.472,0.34,1.31,0.701,2.109,0.701c1.165,0,1.711-0.643,1.711-1.441
		c0-0.84-0.456-1.301-1.638-1.78c-1.583-0.62-2.329-1.581-2.329-2.741c0-1.561,1.146-2.841,3.039-2.841
		c0.89,0,1.673,0.279,2.164,0.6l-0.399,1.28c-0.344-0.24-0.981-0.56-1.8-0.56c-0.946,0-1.473,0.599-1.473,1.319
		c0,0.801,0.527,1.162,1.672,1.642C12.217,13.791,13,14.63,13,16.07c0,1.701-1.2,2.902-3.293,2.902
		c-0.962,0-1.855-0.261-2.474-0.662L7.634,16.973z"/>
	<g id="Doc_16_5_" display="inline">
		<g>
			<path d="M20,7h-0.016L14,0H0v24h20.012L20,7z M19,23H1V1h12.998l-0.014,6H19V23z"/>
		</g>
	</g>
</g>
<g id="java-file" display="none">
	<path display="inline" d="M10.07,15.422c0,1.934-0.97,2.243-1.74,2.243c-0.424,0-0.805-0.089-1.069-0.192l-0.266,1.244
		c0.322,0.131,0.893,0.234,1.362,0.234c1.699,0,3.154-0.855,3.154-3.477V8.869l-1.44-0.005L10.07,15.422L10.07,15.422z"/>
	<g id="Doc_16_7_" display="inline">
		<g>
			<path d="M20,7h-0.016L14,0H0v24h20.012L20,7z M19,23H1V1h12.998l-0.014,6H19V23z"/>
		</g>
	</g>
</g>
<g id="html-file" display="none">
	<g id="Doc_HTML_16_9_" display="inline">
		<g>
			<path d="M4,14.605l4.777,2.979V15.66L5.45,13.766l3.327-1.827V10L4,12.959V14.605z M11.219,10v1.914l3.339,1.865l-3.339,1.883
				v1.924L16,14.604v-1.631L11.219,10z"/>
		</g>
	</g>
	<g id="Doc_16_9_" display="inline">
		<g>
			<path d="M20,7h-0.016L14,0H0v24h20.012L20,7z M19,23H1V1h12.998l-0.014,6H19V23z"/>
		</g>
	</g>
	<polygon display="inline" points="14,0 13.984,7 19.984,7 	"/>
</g>
<g id="xml-file" display="none">
	<g id="Doc_XML_16_1_" display="inline">
		<g>
			<path d="M19,7v2h1V7H19z M1,1h13V0H0v9.012h1V1z M19,23H1v-3.162H0v4.161l20,0.009v-4.17h-1V23z"/>
		</g>
	</g>
	<g display="inline">
		<path d="M6.41,17.23l-0.974-1.685c-0.394-0.646-0.644-1.062-0.88-1.503H4.532c-0.214,0.439-0.429,0.848-0.824,1.516L2.793,17.23
			h-1.13l2.326-3.855L1.753,9.614h1.141L3.9,11.399c0.282,0.498,0.497,0.882,0.7,1.291h0.036c0.214-0.456,0.406-0.804,0.688-1.291
			l1.04-1.785h1.129L5.176,13.32l2.374,3.91H6.41z"/>
		<path d="M15.105,13.887c-0.06-1.062-0.127-2.34-0.114-3.29h-0.032c-0.262,0.892-0.579,1.843-0.964,2.894l-1.343,3.692h-0.745
			l-1.232-3.627c-0.361-1.073-0.666-2.057-0.882-2.959H9.771c-0.021,0.95-0.079,2.227-0.146,3.368l-0.204,3.268H8.483l0.531-7.619
			h1.254l1.299,3.683c0.316,0.939,0.578,1.775,0.769,2.566h0.034c0.19-0.768,0.46-1.604,0.8-2.566l1.355-3.683h1.256l0.476,7.619
			h-0.963L15.105,13.887z"/>
		<path d="M17.764,9.614h0.982v6.791H22v0.828h-4.236V9.614z"/>
	</g>
	<polygon display="inline" points="14,0 14,7 19.984,7 	"/>
	<g id="Doc_XML_16_2_" display="inline">
		<g>
			<path d="M19,7v2h1V7H19z M1,1h13V0H0v9.012h1V1z M19,23H1v-3.162H0v4.161l20,0.009v-4.17h-1V23z"/>
		</g>
	</g>
	<polygon display="inline" points="14,0 14,7 19.984,7 	"/>
</g>
<g id="jso-file" display="none">
	<g display="inline">
		<path d="M4.329,9.698H5.29v5c0,1.982-0.975,2.593-2.259,2.593c-0.355,0-0.79-0.078-1.032-0.181l0.144-0.782
			c0.2,0.073,0.487,0.144,0.809,0.144c0.864,0,1.376-0.389,1.376-1.853L4.329,9.698L4.329,9.698z"/>
		<path d="M6.763,15.993c0.431,0.266,1.062,0.487,1.729,0.487c0.986,0,1.562-0.521,1.562-1.276c0-0.697-0.399-1.095-1.408-1.483
			c-1.218-0.434-1.973-1.064-1.973-2.117c0-1.163,0.964-2.027,2.415-2.027c0.768,0,1.321,0.178,1.651,0.365l-0.266,0.788
			c-0.242-0.133-0.741-0.355-1.418-0.355c-1.019,0-1.406,0.609-1.406,1.12c0,0.698,0.457,1.042,1.485,1.44
			c1.263,0.488,1.905,1.096,1.905,2.193c0,1.152-0.853,2.148-2.616,2.148c-0.719,0-1.506-0.209-1.906-0.475L6.763,15.993z"/>
		<path d="M18.736,13.355c0,2.57-1.563,3.934-3.467,3.934c-1.974,0-3.358-1.529-3.358-3.79c0-2.372,1.478-3.923,3.47-3.923
			C17.419,9.576,18.736,11.139,18.736,13.355z M12.941,13.477c0,1.596,0.863,3.025,2.381,3.025c1.531,0,2.396-1.406,2.396-3.104
			c0-1.484-0.774-3.036-2.381-3.036C13.74,10.364,12.941,11.837,12.941,13.477z"/>
	</g>
	<g id="Doc_XML_16_7_" display="inline">
		<g>
			<path d="M19,7v2h1V7H19z M1,1h13V0H0v9.012h1V1z M19,23H1v-3.162H0v4.161l20,0.009v-4.17h-1V23z"/>
		</g>
	</g>
	<polygon display="inline" points="14,0 14,7 19.984,7 	"/>
	<g id="Doc_XML_16_5_" display="inline">
		<g>
			<path d="M19,7v2h1V7H19z M1,1h13V0H0v9.012h1V1z M19,23H1v-3.162H0v4.161l20,0.009v-4.17h-1V23z"/>
		</g>
	</g>
	<polygon display="inline" points="14,0 14,7 19.984,7 	"/>
</g>
<g id="image-file" display="none">
	<g id="New_Symbol_31" display="inline">
		<g id="pict_copy_1_">
			<g>
				<path d="M20.52,9.619c-1.019,1.351-3.69,4.576-5.985,4.542c-1.614-0.022-3.603-1.791-5.129-1.282
					c-2.668,0.889-5.183,3.66-6.06,4.702H20.52V9.619z M21.373,2.191H2.564C1.148,2.191,0,3.34,0,4.756v13.68
					C0,19.852,1.148,21,2.564,21h18.809c1.416,0,2.564-1.148,2.564-2.564V4.756C23.938,3.34,22.789,2.191,21.373,2.191z M22,19.197
					H2v-15h20V19.197z M6.839,11.596c1.416,0,2.565-1.149,2.565-2.565S8.255,6.466,6.839,6.466S4.274,7.615,4.274,9.031
					S5.423,11.596,6.839,11.596z"/>
			</g>
		</g>
	</g>
</g>
<g id="folder" display="none">
	
		<use xlink:href="#New_Symbol_68"  width="12" height="12" x="-6" y="-6" transform="matrix(2 0 0 -2 12 12)" display="inline" overflow="visible"/>
</g>
<g id="folder-open" display="none">
	<g id="New_Symbol_69" display="inline">
		<g id="_x31_6_2_">
			<g>
				<path d="M11.075,5.408H22.15V3.704H11.075L10,2H2v5h8L11.075,5.408z M11.927,7.112l-1.704,1.704H0l1.704,13.631h20.444
					l1.705-15.334L11.927,7.112L11.927,7.112z"/>
			</g>
		</g>
	</g>
</g>
<g id="Layer_11" display="none">
	<g display="inline">
		<polygon fill="#FFFFFF" points="20.08,14.604 17.954,16.729 15.829,14.604 14.596,15.836 16.721,17.961 14.596,20.086 
			15.829,21.318 17.954,19.193 20.08,21.318 21.313,20.086 19.188,17.961 21.313,15.836 		"/>
		<path fill="#C12D2D" d="M17.96,11.969c-3.306,0-5.986,2.681-5.986,5.986c0,3.307,2.68,5.984,5.986,5.984
			c3.308,0,5.985-2.68,5.985-5.984S21.268,11.969,17.96,11.969z M21.313,20.086l-1.232,1.232l-2.126-2.125l-2.125,2.125
			l-1.233-1.232l2.125-2.125l-2.125-2.125l1.233-1.232l2.125,2.125l2.126-2.125l1.232,1.232l-2.125,2.125L21.313,20.086z"/>
	</g>
</g>
<g id="tree-expand-arrow" display="none">
	
		<use xlink:href="#New_Symbol_166"  width="7.016" height="7.966" x="-3.508" y="-3.983" transform="matrix(2.0042 0 0 -2.0042 12.0308 11.9824)" display="inline" overflow="visible"/>
</g>
<g id="tree-expand-arrow-down" display="none">
	
		<use xlink:href="#New_Symbol_166"  width="7.016" height="7.966" x="-3.508" y="-3.983" transform="matrix(0 2.0042 2.0042 0 12.0313 11.9829)" display="inline" overflow="visible"/>
</g>
<g id="add" display="none">
	<g id="New_Symbol_54" display="inline">
		<g id="add_16_1_">
			<g>
				<polygon points="20,10 14,10 14,4 10,4 10,10 4,10 4,14 10,14 10,20 14,20 14,14 20,14 				"/>
			</g>
		</g>
	</g>
</g>
<g id="leave-conversation" display="none">
	<g display="inline">
		<path d="M16.16,12.654c0,0.587-0.346,1.089-0.842,1.324l-6.503,4.553v-4.407H2.938c-0.812,0-1.469-0.658-1.469-1.47V5.308
			c0-0.812,0.656-1.469,1.469-1.469h11.753c0.812,0,1.469,0.657,1.469,1.469v0.938h1.471V5.308c0-1.622-1.316-2.938-2.939-2.938
			H2.938C1.316,2.37,0,3.686,0,5.308v7.346c0,1.621,1.316,2.938,2.938,2.938h4.408V20h1.47l7.17-4.711
			c0.224-0.107,0.429-0.244,0.613-0.402l0.111-0.074l-0.033,0.002c0.584-0.535,0.953-1.305,0.953-2.16v-0.671H16.16V12.654z"/>
		<path d="M23.508,8.498L20,5.306v2h-7v3h7l-0.025,2l3.533-2.699c0,0,0.492-0.313,0.492-0.555C24,8.931,23.508,8.498,23.508,8.498z"
			/>
	</g>
</g>
<g id="pane-scroll-arrow-down" display="none">
	<g display="inline">
		<path d="M12.039,18L1.387,8.666c-0.468-0.41-0.516-1.122-0.105-1.59c0.41-0.469,1.122-0.515,1.59-0.104l9.166,8.031l9.149-8.023
			c0.467-0.41,1.18-0.362,1.59,0.104c0.41,0.468,0.363,1.18-0.104,1.59L12.039,18z"/>
	</g>
</g>
<g id="pane-scroll-arrow-up" display="none">
	<g display="inline">
		<path d="M12.021,6.691l10.652,9.334c0.468,0.408,0.517,1.121,0.104,1.59c-0.409,0.469-1.121,0.516-1.59,0.104l-9.167-8.031
			l-9.149,8.023c-0.467,0.41-1.18,0.361-1.591-0.104c-0.409-0.469-0.362-1.182,0.105-1.592L12.021,6.691z"/>
	</g>
</g>
<g id="conversation-alert" display="none">
	<path display="inline" d="M23,4.731c0-2.029-1.645-3.67-3.672-3.67H4.645c-2.028,0-3.669,1.642-3.669,3.67v9.175
		c0,2.027,1.642,3.673,3.669,3.673h5.507v5.505h1.836l8.958-5.885c0.277-0.139,0.535-0.307,0.769-0.504l0.14-0.092l-0.043,0.004
		C22.543,15.938,23,14.979,23,13.906V4.731z M17.971,12H6v-1.836h11.971V12z M18,7.865H6.03V6.031H18V7.865z"/>
</g>
<g id="add-comment" display="none">
	<g id="_x31_6_7_" display="inline">
		<g>
			<path d="M23,4.667C23,2.643,21.357,1,19.334,1H4.667C2.643,1,1,2.643,1,4.667v9.166C1,15.857,2.643,17.5,4.667,17.5h5.5V23H12
				l9.047-5.943c0.2-0.106,0.389-0.229,0.564-0.371l0.242-0.158l-0.056,0.004C22.532,15.859,23,14.904,23,13.833V4.667z
				 M21.166,13.833c0,0.731-0.432,1.36-1.053,1.653L12,21.167v-5.5H4.667c-1.014,0-1.833-0.821-1.833-1.834V4.667
				c0-1.013,0.819-1.834,1.833-1.834h14.667c1.016,0,1.832,0.821,1.832,1.834V13.833z"/>
		</g>
	</g>
	<polygon display="inline" points="8,8.006 16,8 16,10 8,10 	"/>
	<rect x="11" y="5" display="inline" width="2" height="8"/>
</g>
<g id="chat-comment" display="none">
	<g id="_x31_6_21_" display="inline">
		<g>
			<path d="M6,8h12V6H6V8z M22.99,4.696C22.99,2.655,21.35,1,19.324,1H4.665C2.641,1,1,2.655,1,4.696v9.24
				c0,2.043,1.641,3.697,3.665,3.697h5.498v5.545h1.833l9.048-5.994c0.197-0.106,0.383-0.229,0.558-0.369l0.244-0.162l-0.057,0.006
				c0.734-0.676,1.202-1.641,1.202-2.723L22.99,4.696L22.99,4.696z M21.33,13.936c0,0.739-0.434,1.371-1.059,1.668l-8.184,5.728
				v-5.545H4.696c-1.021,0-1.847-0.826-1.847-1.851v-9.24c0-1.021,0.826-1.847,1.847-1.847H19.48c1.022,0,1.85,0.826,1.85,1.847
				V13.936z M6,12h12v-2H6V12z"/>
		</g>
	</g>
</g>
<g id="close-delete-small" display="none">
	<g display="inline">
		<g>
			<polygon points="15,9.748 14.252,9 12.008,11.244 9.764,9 9.016,9.748 11.26,11.992 9.016,14.236 9.764,14.984 12.008,12.74 
				14.252,14.984 15,14.236 12.756,11.992 			"/>
		</g>
	</g>
</g>
<g id="list-details" display="none">
	<g id="Detail_view16_1_" display="inline">
		<g>
			<path d="M19.004,6H9v1h10L19.004,6z M1,1v22h22V1H1z M6,22H2V4h4V22z M22,22H7V4l15-0.001V22z M19,9H9v1h10V9z M19,15H9v1h10V15z
				 M19,12H9v1h10V12z M19,18H9v1h10V18z"/>
		</g>
	</g>
</g>
<g id="pencil-small" display="none">
	
		<rect x="9.758" y="8.586" transform="matrix(0.7071 -0.7071 0.7071 0.7071 -2.9703 12.8278)" display="inline" width="8.485" height="2.828"/>
	<rect x="8" y="13" display="inline" width="1" height="3"/>
	<rect x="9" y="15" display="inline" width="2" height="1"/>
</g>
<g id="user-framed" display="none">
	<g display="inline">
		<g>
			<path d="M18.855,16.57c-1.021-0.512-2.06-1.366-4.721-2.359c1.168-0.902,2.475-2.385,2.436-4.497C16.57,6.558,14.525,4,12,4
				C9.476,4,7.429,6.558,7.429,9.714c0.656,2.7,1.747,4.086,2.736,4.806c-2.879,0.985-3.963,1.521-5.023,2.051C4,17.143,4,20,4,20
				h16C20,20,20,17.143,18.855,16.57z M12.09,16.609c-1.143,0-1.804-1.752-1.804-1.752l0.106-0.979
				c-1.051-0.576-1.821-1.838-1.821-4.166c0-1.143,1.25-0.214,2.394-1.356c0.792-0.793,1.571-2.787,1.571-2.787
				c1.748,0,2.892,1.618,2.892,4.143c0,2.062-0.775,3.784-2.301,4.354l1.157,0.361C14.284,14.43,13.232,16.609,12.09,16.609z"/>
		</g>
	</g>
	<path display="inline" d="M1,1v22h22V1H1z M22,22H2V2h20V22z"/>
</g>
<path fill-rule="evenodd" clip-rule="evenodd" d="M23.5,19.56c0,0.471,0,1.931,0,1.931H19v-2.45c-0.01-0.4-0.24-0.73-0.62-0.9
	c-0.08-0.04-0.16-0.069-0.25-0.1l-0.1-0.05c-0.271-0.11-0.521-0.21-0.78-0.311c-0.25-0.1-0.49-0.189-0.73-0.29
	c0.16-0.149,0.131-0.34,0.12-0.51c0-0.02-0.02-0.05-0.04-0.07c-0.359-0.39-0.6-1.229-0.75-1.729c-0.02-0.061-0.06-0.12-0.109-0.16
	c-0.33-0.3-0.4-0.79-0.16-1.17c0.04-0.05,0.06-0.12,0.06-0.18c0.011-0.45,0-0.67,0.021-1.12c0.04-1,0.649-1.7,1.64-1.88
	c0.62-0.11,1.24-0.1,1.84,0.13c0.681,0.26,1.07,0.77,1.15,1.48c0.06,0.51,0.04,0.79,0.05,1.3c0,0.109,0.01,0.21,0.08,0.31
	c0.22,0.37,0.14,0.84-0.18,1.13c-0.04,0.04-0.08,0.09-0.101,0.14c-0.159,0.511-0.399,1.36-0.76,1.761
	c-0.09,0.09-0.07,0.41,0.05,0.52c0.181,0.19,0.38,0.23,0.59,0.38c0.921,0.63,1.931,0.96,2.961,1.38c0.09,0.03,0.18,0.07,0.27,0.11
	C23.4,19.28,23.5,19.4,23.5,19.56z"/>
<path fill-rule="evenodd" clip-rule="evenodd" d="M7.24,14.92c-0.04,0.04-0.08,0.09-0.1,0.14c-0.16,0.511-0.4,1.36-0.76,1.761
	c-0.09,0.09-0.07,0.41,0.05,0.52c0.03,0.03,0.06,0.061,0.09,0.07c-0.28,0.109-0.56,0.21-0.85,0.32c-0.31,0.109-0.62,0.22-0.93,0.35
	C4.21,18.29,4,18.59,4,19.17v2.32h-4.5c0,0,0-1.41,0-1.83c0-0.29,0.06-0.38,0.34-0.49c0.83-0.34,1.65-0.56,2.43-1.02
	c0.37-0.221,0.71-0.33,1.06-0.57c0.07-0.05,0.12-0.12,0.18-0.17c0.17-0.15,0.14-0.351,0.13-0.53c0-0.02-0.02-0.05-0.04-0.07
	c-0.36-0.39-0.59-1.229-0.75-1.729c-0.02-0.061-0.06-0.12-0.11-0.16c-0.33-0.3-0.39-0.79-0.15-1.17c0.03-0.05,0.05-0.12,0.05-0.18
	c0.01-0.45,0-0.67,0.02-1.12c0.04-1,0.65-1.7,1.64-1.88c0.62-0.11,1.24-0.1,1.84,0.13c0.68,0.26,1.07,0.77,1.15,1.48
	c0.06,0.51,0.04,0.79,0.05,1.3c0,0.109,0.02,0.21,0.08,0.31C7.64,14.16,7.56,14.63,7.24,14.92z"/>
<path d="M18.5,19.04v2.45c0,0.01,0,0.01,0,0.01h-14c0,0,0,0,0-0.01v-2.32c0-0.37,0.08-0.49,0.43-0.63c0.71-0.28,1.43-0.51,2.11-0.81
	c0.33-0.141,0.66-0.301,0.98-0.49c0.47-0.271,0.91-0.42,1.36-0.721c0.08-0.06,0.15-0.149,0.22-0.22c0.21-0.189,0.18-0.43,0.17-0.67
	c0-0.03-0.03-0.07-0.06-0.09c-0.45-0.5-0.75-1.56-0.95-2.21c-0.02-0.07-0.07-0.14-0.13-0.2c-0.43-0.38-0.51-1-0.21-1.48
	c0.05-0.07,0.07-0.16,0.08-0.23c0.01-0.58-0.01-0.85,0.02-1.43C8.58,8.72,9.35,7.83,10.6,7.6c0.32-0.06,0.63-0.09,0.95-0.09
	c0.47,0,0.94,0.08,1.4,0.26c0.859,0.33,1.359,0.98,1.46,1.88c0.08,0.64,0.05,1,0.06,1.66c0.011,0.14,0.03,0.26,0.11,0.39
	c0.28,0.47,0.17,1.069-0.23,1.43c-0.06,0.05-0.1,0.12-0.13,0.19c-0.2,0.649-0.51,1.72-0.97,2.229c-0.1,0.12-0.08,0.53,0.06,0.67
	c0.24,0.24,0.49,0.29,0.761,0.48c0.63,0.43,1.3,0.76,1.989,1.04c0.58,0.25,1.171,0.47,1.771,0.71c0.12,0.05,0.229,0.09,0.35,0.149
	C18.37,18.68,18.49,18.83,18.5,19.04z"/>
</svg>
