<?xml version="1.0" encoding="utf-8"?>
<!-- Generator: Adobe Illustrator 16.0.0, SVG Export Plug-In . SVG Version: 6.00 Build 0)  -->
<!DOCTYPE svg PUBLIC "-//W3C//DTD SVG 1.1//EN" "http://www.w3.org/Graphics/SVG/1.1/DTD/svg11.dtd">
<svg version="1.1" id="Layer_1" xmlns="http://www.w3.org/2000/svg" xmlns:xlink="http://www.w3.org/1999/xlink" x="0px" y="0px"
	 width="16px" height="16px" viewBox="0 0 16 16" enable-background="new 0 0 16 16" xml:space="preserve">
<path d="M8,1c3.9,0,7,3.1,7,7c0,3.9-3.1,7-7,7c-3.9,0-7-3.1-7-7C1,4.1,4.1,1,8,1 M8,0C3.6,0,0,3.6,0,8c0,4.4,3.6,8,8,8
	c4.4,0,8-3.6,8-8C16,3.6,12.4,0,8,0L8,0z"/>
<g>
	<path d="M8,5.3c-0.4,0-0.7-0.1-0.9-0.2C7,5,6.9,4.7,6.9,4.4S7,3.9,7.1,3.7C7.3,3.6,7.6,3.5,8,3.5c0.4,0,0.7,0.1,0.9,0.2
		C9,3.9,9.1,4.1,9.1,4.4S9,5,8.9,5.1C8.7,5.3,8.4,5.3,8,5.3z M9,12H7.4C7.2,12,7,11.9,7,11.6V6h1.6C8.9,6,9,6.1,9,6.4V12z"/>
</g>
</svg>
