<?xml version="1.0" encoding="utf-8"?>
<!-- Generator: Adobe Illustrator 16.0.0, SVG Export Plug-In . SVG Version: 6.00 Build 0)  -->
<!DOCTYPE svg PUBLIC "-//W3C//DTD SVG 1.1//EN" "http://www.w3.org/Graphics/SVG/1.1/DTD/svg11.dtd">
<svg version="1.1" id="Layer_1" xmlns="http://www.w3.org/2000/svg" xmlns:xlink="http://www.w3.org/1999/xlink" x="0px" y="0px"
	 width="16px" height="16px" viewBox="0 0 16 16" enable-background="new 0 0 16 16" xml:space="preserve">
<g id="Cancel__16_copy_3">
	<path d="M10.9,4.7L7.1,8.5L5.2,6.7L3.8,8.1l3.2,3.2l0,0l0,0l5.2-5.2L10.9,4.7z"/>
</g>
<path d="M8,1c3.9,0,7,3.1,7,7c0,3.9-3.1,7-7,7c-3.9,0-7-3.1-7-7C1,4.1,4.1,1,8,1 M8,0C3.6,0,0,3.6,0,8c0,4.4,3.6,8,8,8
	c4.4,0,8-3.6,8-8C16,3.6,12.4,0,8,0L8,0z"/>
</svg>
