<?xml version="1.0" encoding="utf-8"?>
<!-- Generator: Adobe Illustrator 16.0.0, SVG Export Plug-In . SVG Version: 6.00 Build 0)  -->
<!DOCTYPE svg PUBLIC "-//W3C//DTD SVG 1.1//EN" "http://www.w3.org/Graphics/SVG/1.1/DTD/svg11.dtd">
<svg version="1.1" id="Layer_1" xmlns="http://www.w3.org/2000/svg" xmlns:xlink="http://www.w3.org/1999/xlink" x="0px" y="0px"
	 width="16px" height="16px" viewBox="0 0 16 16" enable-background="new 0 0 16 16" xml:space="preserve">
<path d="M8,1c3.901,0,7.001,3.1,7.001,7c0,3.9-3.1,7-7.001,7c-3.899,0-7-3.1-7-7C1,4.1,4.101,1,8,1 M8,0C3.601,0,0,3.6,0,8
	c0,4.4,3.601,8,8,8c4.401,0,8.001-3.6,8.001-8C16.001,3.6,12.401,0,8,0L8,0z"/>
<g>
	<path d="M11.001,5v6h-6V5H11.001 M12.001,4h-8v8h8V4L12.001,4z"/>
</g>
</svg>
