<?xml version="1.0" encoding="utf-8"?>
<!-- Generator: Adobe Illustrator 16.0.0, SVG Export Plug-In . SVG Version: 6.00 Build 0)  -->
<!DOCTYPE svg PUBLIC "-//W3C//DTD SVG 1.1//EN" "http://www.w3.org/Graphics/SVG/1.1/DTD/svg11.dtd">
<svg version="1.1" id="Layer_1" xmlns="http://www.w3.org/2000/svg" xmlns:xlink="http://www.w3.org/1999/xlink" x="0px" y="0px"
	 width="16px" height="16px" viewBox="0.5 0.5 16 16" enable-background="new 0.5 0.5 16 16" xml:space="preserve">
<g id="Cancel__16_copy_2">
	<path d="M9.5,4.5h-2v3h-3v2h3v3h2v-3h3v-2h-3V4.5z"/>
</g>
<path d="M8.5,1.5c3.9,0,7,3.1,7,7c0,3.9-3.1,7-7,7c-3.9,0-7-3.1-7-7C1.5,4.6,4.6,1.5,8.5,1.5 M8.5,0.5c-4.4,0-8,3.6-8,8
	c0,4.4,3.6,8,8,8c4.4,0,8-3.6,8-8C16.5,4.1,12.9,0.5,8.5,0.5L8.5,0.5z"/>
</svg>
