<?xml version="1.0" encoding="utf-8"?>
<!-- Generator: Adobe Illustrator 16.0.0, SVG Export Plug-In . SVG Version: 6.00 Build 0)  -->
<!DOCTYPE svg PUBLIC "-//W3C//DTD SVG 1.1//EN" "http://www.w3.org/Graphics/SVG/1.1/DTD/svg11.dtd">
<svg version="1.1" id="Layer_1" xmlns="http://www.w3.org/2000/svg" xmlns:xlink="http://www.w3.org/1999/xlink" x="0px" y="0px"
	 width="16px" height="16px" viewBox="0 0 16 16" enable-background="new 0 0 16 16" xml:space="preserve">
<g>
	<path d="M7.4,9.7c-1.1,0-0.2-1.7,0.1-2c0.4-0.4,1.7-1.8,0.3-1.9C7.3,5.6,6,6.1,6,5.3C6,5,6,4.7,6,4.5C6,4.1,6.7,4.1,7,4
		c0.9-0.2,2.2-0.2,3,0.5c0.7,0.7,0.7,2,0.3,2.8C9.8,8.1,8.6,8.5,8.5,9.4C8.3,9.6,8.6,9.7,8.2,9.7C7.9,9.7,7.7,9.7,7.4,9.7z M9,11.4
		c0,1.5-2.3,1.5-2.3,0C6.7,10,9,10,9,11.4z"/>
</g>
<path d="M8,1c3.9,0,7,3.1,7,7c0,3.9-3.1,7-7,7c-3.9,0-7-3.1-7-7C1,4.1,4.1,1,8,1 M8,0C3.6,0,0,3.6,0,8c0,4.4,3.6,8,8,8
	c4.4,0,8-3.6,8-8C16,3.6,12.4,0,8,0L8,0z"/>
</svg>
