<?xml version="1.0" encoding="utf-8"?>
<!-- Generator: Adobe Illustrator 16.0.0, SVG Export Plug-In . SVG Version: 6.00 Build 0)  -->
<!DOCTYPE svg PUBLIC "-//W3C//DTD SVG 1.1//EN" "http://www.w3.org/Graphics/SVG/1.1/DTD/svg11.dtd">
<svg version="1.1" id="Layer_1" xmlns="http://www.w3.org/2000/svg" xmlns:xlink="http://www.w3.org/1999/xlink" x="0px" y="0px"
	 width="16px" height="16px" viewBox="0 0 16 16" enable-background="new 0 0 16 16" xml:space="preserve">
<polygon points="15,4 15,16 12,16 12,15 14,15 14,4 11,4 11,1 3,1 3,7 2,7 2,0 11,0 "/>
<rect x="2" y="11" width="2" height="1"/>
<rect x="2" y="13" width="3" height="1"/>
<path d="M8.5,7C7.11,7,5.9,7.82,5.35,9H0v7h10v-2.35c1.18-0.551,2-1.761,2-3.15C12,8.5,10.5,7,8.5,7z M9,15H1v-5h4.04
	C5.01,10.16,5,10.33,5,10.5C5,12.43,6.57,14,8.5,14c0.17,0,0.34-0.01,0.5-0.04V15z M10,12.5c-0.29,0.22-0.63,0.37-1,0.45
	C8.84,12.98,8.67,13,8.5,13C7.12,13,6,11.88,6,10.5c0-0.17,0.02-0.34,0.05-0.5C6.13,9.63,6.28,9.29,6.5,9c0.46-0.61,1.18-1,2-1
	c0.69,0,1.32,0.28,1.77,0.73L8,11h2.95C10.83,11.61,10.48,12.14,10,12.5z"/>
</svg>
