<?xml version="1.0" encoding="utf-8"?>
<!-- Generator: Adobe Illustrator 16.0.0, SVG Export Plug-In . SVG Version: 6.00 Build 0)  -->
<!DOCTYPE svg PUBLIC "-//W3C//DTD SVG 1.1//EN" "http://www.w3.org/Graphics/SVG/1.1/DTD/svg11.dtd">
<svg version="1.1" id="Layer_1" xmlns="http://www.w3.org/2000/svg" xmlns:xlink="http://www.w3.org/1999/xlink" x="0px" y="0px"
	 width="16px" height="16px" viewBox="0 0 16 16" enable-background="new 0 0 16 16" xml:space="preserve">
<path d="M12.7,7.3l-1.2,1.4c0,0.1,0,0.2,0,0.3c0,0,0,0,0,0H13C13,8.4,12.9,7.8,12.7,7.3z M7.9,5.3c0.9,0,1.7,0.4,2.4,0.9l1.1-0.9
	c-0.9-0.9-2.1-1.4-3.5-1.4C5.1,3.9,2.9,6.2,2.9,9h1.5c0,0,0,0,0,0C4.3,7,5.9,5.3,7.9,5.3z M8,1C3.5,1,0,4.6,0,9
	c0,2.6,1.3,4.9,3.2,6.4c1.4-0.4,3-0.7,4.8-0.7c1.8,0,3.4,0.3,4.8,0.7c1.9-1.5,3.2-3.8,3.2-6.4C15.9,4.6,12.4,1,8,1z M11.9,14.2
	c-1.1-0.4-2.5-0.6-3.9-0.6c-1.4,0-2.8,0.2-3.9,0.6C2.5,13,1.4,11.1,1.4,9c0-3.6,2.9-6.5,6.5-6.5c3.6,0,6.5,2.9,6.5,6.5
	C14.5,11.1,13.4,13,11.9,14.2z M12.7,5.3l-6.2,5.1l1.5,1.5L13,5.7L12.7,5.3z"/>
</svg>
