<?xml version="1.0" encoding="utf-8"?>
<!-- Generator: Adobe Illustrator 16.0.0, SVG Export Plug-In . SVG Version: 6.00 Build 0)  -->
<!DOCTYPE svg PUBLIC "-//W3C//DTD SVG 1.1//EN" "http://www.w3.org/Graphics/SVG/1.1/DTD/svg11.dtd">
<svg version="1.1" id="Layer_1" xmlns="http://www.w3.org/2000/svg" xmlns:xlink="http://www.w3.org/1999/xlink" x="0px" y="0px"
	 width="16px" height="16px" viewBox="0 0 16 16" enable-background="new 0 0 16 16" xml:space="preserve">
<g>
	<path fill="none" stroke="#000000" stroke-width="2" stroke-miterlimit="10" d="M12,9c0,2.2-1.8,4-4,4l0,0c-2.2,0-4-1.8-4-4V5
		c0-2.2,1.8-4,4-4l0,0c2.2,0,4,1.8,4,4V9z"/>
</g>
<g>
	<path d="M15,15c0,0.5-0.5,1-1,1H2c-0.5,0-1-0.5-1-1V8c0-0.5,0.5-1,1-1h12c0.5,0,1,0.5,1,1V15z"/>
</g>
</svg>
