<?xml version="1.0" encoding="utf-8"?>
<!-- Generator: Adobe Illustrator 16.0.0, SVG Export Plug-In . SVG Version: 6.00 Build 0)  -->
<!DOCTYPE svg PUBLIC "-//W3C//DTD SVG 1.1//EN" "http://www.w3.org/Graphics/SVG/1.1/DTD/svg11.dtd">
<svg version="1.1" id="Layer_1" xmlns="http://www.w3.org/2000/svg" xmlns:xlink="http://www.w3.org/1999/xlink" x="0px" y="0px"
	 width="23.998px" height="24.002px" viewBox="0 0 23.998 24.002" enable-background="new 0 0 23.998 24.002" xml:space="preserve">
<g>
	<path d="M12.815,11.376c0.769-2.667,1.526-5.301,2.295-7.966c0.129,0.081,0.234,0.144,0.338,0.212
		c0.609,0.403,1.248,0.746,1.941,0.984c1.057,0.361,2.135,0.426,3.234,0.28c1.074-0.142,2.1-0.457,3.104-0.849
		c0.066-0.025,0.133-0.051,0.201-0.074c0.01-0.003,0.027,0.007,0.068,0.019c-0.758,2.617-1.512,5.233-2.273,7.867
		c-0.229,0.096-0.459,0.197-0.693,0.291c-0.984,0.386-1.993,0.667-3.051,0.765c-1.438,0.131-2.785-0.168-4.047-0.86
		C13.56,11.84,13.2,11.607,12.815,11.376z"/>
	<path d="M8.882,19.908c-0.466-0.272-0.895-0.544-1.342-0.782c-1.339-0.709-2.764-0.909-4.258-0.693
		c-1.008,0.146-1.975,0.436-2.92,0.803C0.259,19.274,0.157,19.313,0,19.372c0.763-2.652,1.514-5.268,2.268-7.897
		c0.266-0.103,0.528-0.21,0.796-0.307c0.948-0.341,1.914-0.603,2.919-0.71c1.626-0.176,3.129,0.175,4.517,1.031
		c0.229,0.141,0.453,0.29,0.701,0.447C10.428,14.597,9.656,17.249,8.882,19.908z"/>
	<path d="M11.597,10.466c-0.429-0.257-0.822-0.508-1.229-0.735C9.232,9.099,8.013,8.812,6.716,8.899
		C5.73,8.964,4.781,9.209,3.854,9.542c-0.372,0.132-0.74,0.274-1.171,0.436C3.446,7.303,4.212,4.684,4.971,2.04
		c0.243-0.095,0.491-0.196,0.742-0.287C6.819,1.354,7.947,1.059,9.13,1.006c1.474-0.064,2.814,0.34,4.055,1.109
		c0.229,0.142,0.451,0.289,0.699,0.448C13.122,5.193,12.365,7.817,11.597,10.466z"/>
	<path d="M10.138,20.619c0.766-2.634,1.527-5.249,2.297-7.897c0.153,0.098,0.277,0.176,0.401,0.256
		c0.558,0.367,1.142,0.682,1.771,0.908c0.781,0.283,1.59,0.405,2.422,0.399c1.353-0.009,2.646-0.323,3.926-0.731
		c0.082-0.025,0.165-0.054,0.302-0.097c-0.737,2.588-1.478,5.14-2.209,7.69c-0.911,0.375-1.831,0.685-2.789,0.869
		c-0.838,0.164-1.679,0.223-2.526,0.119c-1.056-0.129-2.014-0.521-2.913-1.078C10.597,20.922,10.381,20.776,10.138,20.619z"/>
</g>
</svg>
