<?xml version="1.0" encoding="utf-8"?>
<!-- Generator: Adobe Illustrator 16.0.0, SVG Export Plug-In . SVG Version: 6.00 Build 0)  -->
<!DOCTYPE svg PUBLIC "-//W3C//DTD SVG 1.1//EN" "http://www.w3.org/Graphics/SVG/1.1/DTD/svg11.dtd">
<svg version="1.1" id="Layer_1" xmlns="http://www.w3.org/2000/svg" xmlns:xlink="http://www.w3.org/1999/xlink" x="0px" y="0px"
	 width="23.998px" height="24.002px" viewBox="0 0 23.998 24.002" enable-background="new 0 0 23.998 24.002" xml:space="preserve">
<g id="_x31_6_17_">
	<path d="M18.998,22.033c0-0.565,0-1.031,0-1.031H0c0,0,0,0.466,0,1.031c0,0.744,0.736,1.723,1.576,1.969c2.268,0,18.921,0,18.921,0
		C19.698,23.718,18.998,22.749,18.998,22.033z M22.998,0H3c0,0-1,0.778-1,1.969C2,4.046,2,17.37,2,20.002h1
		C3,17.633,3,4.339,3,2.437C3,1.417,3.598,1,3.598,1h17.744c0,0-0.346,0.667-0.346,1.688c0,0.018,0,0.035,0,0.054
		c0,2.276,0,16.243,0,18.52c0,1.051-0.628,1.74-0.628,1.74H20.34c0.211,0.332,0.504,0.639,0.83,0.838
		c0.285-0.292,0.828-0.965,0.828-1.869c0-2.656,0-19.982,0-20.003C21.998,0.777,22.998,0,22.998,0z M23.098,0.434
		c-0.279,0.349-0.6,0.886-0.6,1.566v2h1.5c0,0,0-1.467,0-2.031C23.998,1.438,23.616,0.833,23.098,0.434z"/>
</g>
<rect x="5" y="4" width="13.998" height="1"/>
<rect x="5" y="7" width="13.998" height="1"/>
<rect x="5" y="10.002" width="13.998" height="1"/>
<rect x="5" y="13.002" width="13.998" height="1"/>
<rect x="5" y="16.002" width="13.998" height="1"/>
</svg>
