<?xml version="1.0" encoding="utf-8"?>
<!-- Generator: Adobe Illustrator 16.0.0, SVG Export Plug-In . SVG Version: 6.00 Build 0)  -->
<!DOCTYPE svg PUBLIC "-//W3C//DTD SVG 1.1//EN" "http://www.w3.org/Graphics/SVG/1.1/DTD/svg11.dtd">
<svg version="1.1" id="Layer_1" xmlns="http://www.w3.org/2000/svg" xmlns:xlink="http://www.w3.org/1999/xlink" x="0px" y="0px"
	 width="32px" height="32px" viewBox="0 0 32 32" enable-background="new 0 0 32 32" xml:space="preserve">
<path d="M32,4h-4v24c0,4-2,4-2,4h-1c0,0,2,0,2-4V4c0-1.4804688,0.2792969-2.4199219,0.6191406-3H5.6103516
	c-0.340332,0.5800781-0.6201172,1.5195313-0.6201172,3v24H23c-0.0410156,4,2,4,2,4H1.9902344c0,0-2,0-2-4h4V4c0-4,2-4,2-4H30
	C30,0,32,0,32,4z"/>
<g>
	<polygon points="7.2890625,8 6.6899414,11 11.8266602,11 10.027832,20 13.5063477,20 15.3115234,11 20.0126953,11 20.6123047,8 	
		"/>
	<polygon points="19.4619141,15 18.2636719,21 23.5136719,21 22.9140625,24 14.2919922,24 16.6962891,12 25.3125,12 24.7128906,15 	
		"/>
</g>
</svg>
