<?xml version="1.0" encoding="utf-8"?>
<!-- Generator: Adobe Illustrator 16.0.0, SVG Export Plug-In . SVG Version: 6.00 Build 0)  -->
<!DOCTYPE svg PUBLIC "-//W3C//DTD SVG 1.1//EN" "http://www.w3.org/Graphics/SVG/1.1/DTD/svg11.dtd">
<svg version="1.1" id="Layer_1" xmlns="http://www.w3.org/2000/svg" xmlns:xlink="http://www.w3.org/1999/xlink" x="0px" y="0px"
	 width="32px" height="32px" viewBox="0 0 32 32" enable-background="new 0 0 32 32" xml:space="preserve">
<path d="M27,28c0,4-2,4-2,4h1c0,0,2,0,2-4V4h4c0-4-2-4-2-4H5c0,0-2,0-2,4v24h-4c0,4,2,4,2,4h24c0,0-2.04,0-2-4H4V4
	c0-1.48,0.28-2.42,0.62-3h23C27.279,1.58,27,2.52,27,4V28z"/>
<rect x="14" y="9" width="13" height="3"/>
<g>
	<path d="M10.5,8c1.378,0,2.5,1.122,2.5,2.5S11.878,13,10.5,13S8,11.878,8,10.5S9.122,8,10.5,8 M10.5,6C8.015,6,6,8.015,6,10.5
		S8.015,15,10.5,15s4.5-2.015,4.5-4.5S12.985,6,10.5,6L10.5,6z"/>
</g>
<rect x="22" y="18" width="5" height="3"/>
<g>
	<path d="M18.5,17c1.379,0,2.5,1.121,2.5,2.5S19.879,22,18.5,22S16,20.879,16,19.5S17.121,17,18.5,17 M18.5,15
		c-2.485,0-4.5,2.016-4.5,4.5s2.015,4.5,4.5,4.5s4.5-2.016,4.5-4.5S20.985,15,18.5,15L18.5,15z"/>
</g>
</svg>
