<?xml version="1.0" encoding="UTF-8" standalone="no"?>
<!-- Generator: Adobe Illustrator 16.0.0, SVG Export Plug-In . SVG Version: 6.00 Build 0)  -->

<svg
   xmlns:dc="http://purl.org/dc/elements/1.1/"
   xmlns:cc="http://creativecommons.org/ns#"
   xmlns:rdf="http://www.w3.org/1999/02/22-rdf-syntax-ns#"
   xmlns:svg="http://www.w3.org/2000/svg"
   xmlns="http://www.w3.org/2000/svg"
   xmlns:sodipodi="http://sodipodi.sourceforge.net/DTD/sodipodi-0.dtd"
   xmlns:inkscape="http://www.inkscape.org/namespaces/inkscape"
   version="1.1"
   id="Layer_1"
   x="0px"
   y="0px"
   width="32px"
   height="32px"
   viewBox="0 0 32 32"
   enable-background="new 0 0 32 32"
   xml:space="preserve"
   inkscape:version="0.48.3.1 r9886"
   sodipodi:docname="script-web.svg"><metadata
   id="metadata11"><rdf:RDF><cc:Work
       rdf:about=""><dc:format>image/svg+xml</dc:format><dc:type
         rdf:resource="http://purl.org/dc/dcmitype/StillImage" /></cc:Work></rdf:RDF></metadata><defs
   id="defs9" /><sodipodi:namedview
   pagecolor="#ffffff"
   bordercolor="#666666"
   borderopacity="1"
   objecttolerance="10"
   gridtolerance="10"
   guidetolerance="10"
   inkscape:pageopacity="0"
   inkscape:pageshadow="2"
   inkscape:window-width="640"
   inkscape:window-height="480"
   id="namedview7"
   showgrid="false"
   inkscape:zoom="7.375"
   inkscape:cx="16"
   inkscape:cy="16"
   inkscape:window-x="0"
   inkscape:window-y="25"
   inkscape:window-maximized="0"
   inkscape:current-layer="Layer_1" />
<path
   d="m 32,4 h -4 v 24 c 0,4 -2,4 -2,4 h -1 c 0,0 2,0 2,-4 V 4 C 27,2.5195312 27.279297,1.5800781 27.619141,1 H 4.6201172 C 4.2797852,1.5800781 4,2.5195313 4,4 v 24 h 19 c -0.04102,4 2,4 2,4 H 1 c 0,0 -2,0 -2,-4 H 3 V 4 C 3,0 5,0 5,0 h 25 c 0,0 2,0 2,4 z"
   id="path3"
   inkscape:connector-curvature="0" />
<path
   d="M23.9902344,14.9907227c-0.1103516-1.7700195-0.7597656-3.4101563-1.7890625-4.7299805  c-0.2109375-0.2700195-0.4306641-0.5200195-0.6708984-0.7602539C20.1005859,8.0605469,18.1503906,7.1303711,16.0004883,7h-0.2700195  c-0.0800781-0.0097656-0.1499023-0.0097656-0.2299805-0.0097656s-0.1499023,0-0.2299805,0.0097656h-0.2700195  c-2.1499023,0.1303711-4.1000977,1.0595703-5.5297852,2.4995117c-0.2402344,0.2402344-0.4604492,0.4902344-0.6601563,0.7602539  c-1.0400391,1.3198242-1.6904297,2.9599609-1.8007813,4.7299805C7,15.159668,7,15.3198242,7,15.4897461s0,0.3300781,0.0097656,0.5  c0.1103516,1.7700195,0.7597656,3.4106445,1.7998047,4.7299805c0.199707,0.2705078,0.4199219,0.5205078,0.6601563,0.7607422  c1.4296875,1.4394531,3.3798828,2.3691406,5.5297852,2.5h0.2700195c0.0800781,0.0097656,0.1499023,0.0097656,0.2299805,0.0097656  s0.1499023,0,0.2299805-0.0097656h0.2700195c2.1499023-0.1308594,4.1000977-1.0595703,5.5297852-2.5  c0.2402344-0.2402344,0.4609375-0.4902344,0.6699219-0.7597656c1.0302734-1.3203125,1.6806641-2.9599609,1.7910156-4.7299805  C24,15.8208008,24,15.6606445,24,15.4907227S24,15.1606445,23.9902344,14.9907227z M15.0004883,8.090332v2.8901367  c-0.7700195-0.0200195-1.5-0.1000977-2.1699219-0.2304688C13.4003906,9.3203125,14.2006836,8.3701172,15.0004883,8.090332z   M12.0097656,14.9902344c0.0400391-1.2202148,0.2202148-2.3300781,0.5004883-3.2900391  C13.2905273,11.8603516,14.1298828,11.9604492,15,11.9804688v3.0097656H12.0097656z M15,15.9902344V19  c-0.8701172,0.0195313-1.7099609,0.1201172-2.4907227,0.2802734c-0.2792969-0.9599609-0.4594727-2.0693359-0.4995117-3.2900391H15z   M12.9804688,8.4404297C12.5405273,9,12.1606445,9.7104492,11.8603516,10.5195313  c-0.5297852-0.1396484-1.0200195-0.3198242-1.4599609-0.5097656C11.140625,9.3095703,12.0102539,8.7700195,12.9804688,8.4404297z   M9.6904297,10.7597656c0.550293,0.2900391,1.1699219,0.5200195,1.8398438,0.7099609  c-0.300293,1.0600586-0.4804688,2.25-0.5205078,3.5200195H8.0297852  C8.1201172,13.3896484,8.7304688,11.9296875,9.6904297,10.7597656z M8.0297852,15.9897461h2.9799805  c0.0400391,1.2700195,0.2202148,2.4594727,0.5195313,3.5200195c-0.6699219,0.1894531-1.2895508,0.4199219-1.8398438,0.7099609  C8.7299805,19.0498047,8.1201172,17.5898438,8.0297852,15.9897461z M10.3994141,20.9697266  c0.4399414-0.1904297,0.9301758-0.3701172,1.4599609-0.5097656c0.300293,0.8095703,0.6801758,1.5205078,1.1201172,2.0800781  C12.0092773,22.2109375,11.1396484,21.6699219,10.3994141,20.9697266z M12.8295898,20.2304688  C13.4995117,20.0996094,14.2294922,20.0195313,14.9995117,20v2.890625  C14.199707,22.6103516,13.3994141,21.6601563,12.8295898,20.2304688z M20.6005859,10.0107422  c-0.4404297,0.1899414-0.9306641,0.3701172-1.4599609,0.5097656C18.8398438,9.7104492,18.4609375,9,18.0205078,8.4404297  C18.9902344,8.7700195,19.8603516,9.3105469,20.6005859,10.0107422z M16.0004883,8.090332  c0.800293,0.2797852,1.6000977,1.2299805,2.1694336,2.659668C17.5,10.8803711,16.7705078,10.9604492,16.0004883,10.9804688V8.090332  z M16,11.9804688c0.8701172-0.0200195,1.7109375-0.1201172,2.4902344-0.2802734  c0.2792969,0.9599609,0.4599609,2.0698242,0.5,3.2900391H16V11.9804688z M16,15.9902344h2.9902344  c-0.0400391,1.2207031-0.2207031,2.3300781-0.5,3.2900391C17.7099609,19.1201172,16.8701172,19.0195313,16,19V15.9902344z   M15.9995117,22.890625V20c0.7700195,0.0195313,1.5004883,0.0996094,2.1704102,0.2304688  C17.5996094,21.6601563,16.7988281,22.6103516,15.9995117,22.890625z M18.0195313,22.5400391  c0.4394531-0.5595703,0.8203125-1.2705078,1.1201172-2.0791016c0.5302734,0.1396484,1.0205078,0.3203125,1.4599609,0.5097656  C19.859375,21.6708984,18.9902344,22.2109375,18.0195313,22.5400391z M21.3095703,20.2207031  c-0.5498047-0.2900391-1.1699219-0.5195313-1.8398438-0.7099609c0.2998047-1.0595703,0.4804688-2.25,0.5205078-3.5200195h2.9804688  C22.8798828,17.5908203,22.2695313,19.0507813,21.3095703,20.2207031z M19.9902344,14.9907227  c-0.0400391-1.2700195-0.2207031-2.4599609-0.5195313-3.5200195c0.6699219-0.1899414,1.2890625-0.4199219,1.8398438-0.7099609  c0.9589844,1.1699219,1.5693359,2.6298828,1.6601563,4.2299805H19.9902344z"
   id="path5" />
</svg>