<?xml version="1.0" encoding="utf-8"?>
<!-- Generator: Adobe Illustrator 16.0.3, SVG Export Plug-In . SVG Version: 6.00 Build 0)  -->
<!DOCTYPE svg PUBLIC "-//W3C//DTD SVG 1.1//EN" "http://www.w3.org/Graphics/SVG/1.1/DTD/svg11.dtd" [
	<!ENTITY st0 "fill-rule:evenodd;clip-rule:evenodd;">
]>
<svg version="1.1" id="Layer_1" xmlns="http://www.w3.org/2000/svg" xmlns:xlink="http://www.w3.org/1999/xlink" x="0px" y="0px"
	 width="16px" height="16px" viewBox="0 0 16 16" style="enable-background:new 0 0 16 16;" xml:space="preserve">
<g id="Server_16">
	<path style="&st0;" d="M6,9.5C6,9.224,5.776,9,5.5,9S5,9.224,5,9.5S5.224,10,5.5,10S6,9.776,6,9.5z M9,9.5C9,9.224,8.776,9,8.5,9
		S8,9.224,8,9.5S8.224,10,8.5,10S9,9.776,9,9.5z M11,12.5c0-0.276-0.224-0.5-0.5-0.5S10,12.224,10,12.5s0.224,0.5,0.5,0.5
		S11,12.776,11,12.5z M6,12.5C6,12.224,5.776,12,5.5,12S5,12.224,5,12.5S5.224,13,5.5,13S6,12.776,6,12.5z M11,9.5
		C11,9.224,10.776,9,10.5,9S10,9.224,10,9.5s0.224,0.5,0.5,0.5S11,9.776,11,9.5z M11,3.5C11,3.224,10.776,3,10.5,3S10,3.224,10,3.5
		S10.224,4,10.5,4S11,3.776,11,3.5z M6,6.5C6,6.224,5.776,6,5.5,6S5,6.224,5,6.5S5.224,7,5.5,7S6,6.776,6,6.5z M3,1v14h10V1H3z
		 M12,13h-1.5h-2h-3H4v-2h8V13z M12,10h-1.5h-2h-3H4V8h8V10z M12,7h-1.5h-2h-3H4V5h8V7z M12,4h-1.5h-2h-3H4V2h8V4z M9,3.5
		C9,3.224,8.776,3,8.5,3S8,3.224,8,3.5S8.224,4,8.5,4S9,3.776,9,3.5z M6,3.5C6,3.224,5.776,3,5.5,3S5,3.224,5,3.5S5.224,4,5.5,4
		S6,3.776,6,3.5z M9,6.5C9,6.224,8.776,6,8.5,6S8,6.224,8,6.5S8.224,7,8.5,7S9,6.776,9,6.5z M11,6.5C11,6.224,10.776,6,10.5,6
		S10,6.224,10,6.5S10.224,7,10.5,7S11,6.776,11,6.5z M9,12.5C9,12.224,8.776,12,8.5,12S8,12.224,8,12.5S8.224,13,8.5,13
		S9,12.776,9,12.5z"/>
</g>
</svg>
