<?xml version="1.0" encoding="utf-8"?>
<!-- Generator: Adobe Illustrator 16.0.0, SVG Export Plug-In . SVG Version: 6.00 Build 0)  -->
<!DOCTYPE svg PUBLIC "-//W3C//DTD SVG 1.1//EN" "http://www.w3.org/Graphics/SVG/1.1/DTD/svg11.dtd">
<svg version="1.1" id="Layer_1" xmlns="http://www.w3.org/2000/svg" xmlns:xlink="http://www.w3.org/1999/xlink" x="0px" y="0px"
	 width="16px" height="16px" viewBox="0 0 16 16" enable-background="new 0 0 16 16" xml:space="preserve">
<g>
	<path fill="#0096D6" d="M2,9.857C2,8.557,3.076,7.5,4.4,7.5h7.854c0.072,0,0.143,0.004,0.217,0.014
		c0.957,0.117,1.635,0.975,1.516,1.914c-0.119,0.939-0.992,1.605-1.947,1.487c-0.085-0.011-0.166-0.024-0.245-0.049
		c-0.185,1.485-1.47,2.634-3.028,2.634c-1.27,0-2.356-0.759-2.817-1.841c-0.419,0.347-0.958,0.555-1.547,0.555
		C3.076,12.214,2,11.16,2,9.857z"/>
</g>
<g>
	<g>
		<g>
			<path fill="#0096D6" d="M0.5,15.25c-0.138,0-0.25-0.112-0.25-0.25v-0.25c0-0.138,0.112-0.25,0.25-0.25s0.25,0.112,0.25,0.25V15
				C0.75,15.138,0.638,15.25,0.5,15.25z"/>
		</g>
		<g>
			<path fill="#0096D6" d="M0.5,13.982c-0.138,0-0.25-0.112-0.25-0.25v-0.509c0-0.138,0.112-0.25,0.25-0.25s0.25,0.112,0.25,0.25
				v0.509C0.75,13.87,0.638,13.982,0.5,13.982z M0.5,12.457c-0.138,0-0.25-0.112-0.25-0.25v-0.509c0-0.138,0.112-0.25,0.25-0.25
				s0.25,0.112,0.25,0.25v0.509C0.75,12.345,0.638,12.457,0.5,12.457z M0.5,10.931c-0.138,0-0.25-0.112-0.25-0.25v-0.509
				c0-0.138,0.112-0.25,0.25-0.25s0.25,0.112,0.25,0.25v0.509C0.75,10.818,0.638,10.931,0.5,10.931z M0.5,9.405
				c-0.138,0-0.25-0.112-0.25-0.25V8.646c0-0.138,0.112-0.25,0.25-0.25s0.25,0.112,0.25,0.25v0.509
				C0.75,9.293,0.638,9.405,0.5,9.405z M0.5,7.879c-0.138,0-0.25-0.112-0.25-0.25V7.121c0-0.138,0.112-0.25,0.25-0.25
				s0.25,0.112,0.25,0.25v0.509C0.75,7.768,0.638,7.879,0.5,7.879z M0.5,6.354c-0.138,0-0.25-0.112-0.25-0.25V5.595
				c0-0.138,0.112-0.25,0.25-0.25s0.25,0.112,0.25,0.25v0.509C0.75,6.242,0.638,6.354,0.5,6.354z M7,5.472
				c-0.138,0-0.25-0.112-0.25-0.25V4.713c0-0.138,0.112-0.25,0.25-0.25s0.25,0.112,0.25,0.25v0.509C7.25,5.36,7.138,5.472,7,5.472z
				 M0.5,4.828c-0.138,0-0.25-0.112-0.25-0.25V4.069c0-0.138,0.112-0.25,0.25-0.25s0.25,0.112,0.25,0.25v0.509
				C0.75,4.716,0.638,4.828,0.5,4.828z M7,3.946c-0.138,0-0.25-0.112-0.25-0.25V3.5c0-0.007-0.001-0.114-0.024-0.28
				C6.707,3.083,6.803,2.958,6.94,2.939c0.133-0.022,0.263,0.077,0.281,0.214C7.25,3.366,7.25,3.5,7.25,3.5v0.196
				C7.25,3.834,7.138,3.946,7,3.946z M0.547,3.302c-0.014,0-0.029-0.001-0.043-0.004C0.368,3.275,0.277,3.146,0.301,3.009
				c0.026-0.153,0.067-0.333,0.13-0.528C0.473,2.35,0.616,2.277,0.746,2.32c0.131,0.042,0.204,0.183,0.161,0.314
				c-0.054,0.169-0.09,0.327-0.114,0.461C0.772,3.217,0.667,3.302,0.547,3.302z M6.697,2.459c-0.095,0-0.186-0.055-0.228-0.147
				C6.403,2.166,6.328,2.028,6.244,1.903c-0.077-0.114-0.046-0.27,0.068-0.347C6.426,1.48,6.582,1.509,6.659,1.625
				c0.099,0.147,0.188,0.31,0.266,0.481c0.057,0.126,0,0.274-0.125,0.331C6.767,2.452,6.732,2.459,6.697,2.459z M1.126,1.903
				c-0.052,0-0.104-0.016-0.149-0.049c-0.111-0.083-0.134-0.239-0.052-0.35c0.112-0.15,0.236-0.289,0.371-0.413
				c0.102-0.093,0.26-0.086,0.353,0.015c0.093,0.102,0.086,0.26-0.015,0.353C1.523,1.562,1.42,1.677,1.327,1.802
				C1.278,1.869,1.203,1.903,1.126,1.903z M5.743,1.293c-0.049,0-0.098-0.014-0.142-0.044C5.477,1.164,5.341,1.088,5.199,1.025
				c-0.126-0.056-0.183-0.204-0.127-0.33c0.057-0.126,0.205-0.183,0.33-0.127c0.17,0.076,0.332,0.166,0.482,0.27
				c0.114,0.078,0.143,0.234,0.064,0.348C5.901,1.255,5.822,1.293,5.743,1.293z M2.324,0.994c-0.1,0-0.194-0.06-0.233-0.159
				c-0.05-0.128,0.013-0.273,0.142-0.324c0.166-0.065,0.342-0.118,0.522-0.158c0.141-0.03,0.269,0.056,0.298,0.19
				c0.03,0.135-0.055,0.269-0.19,0.298C2.702,0.876,2.553,0.922,2.415,0.977C2.385,0.988,2.354,0.994,2.324,0.994z M4.324,0.784
				c-0.01,0-0.02,0-0.03-0.002c-0.15-0.018-0.31-0.029-0.479-0.031C3.676,0.749,3.566,0.635,3.568,0.497
				C3.57,0.36,3.681,0.25,3.818,0.25c0.001,0,0.002,0,0.003,0c0.188,0.002,0.365,0.015,0.532,0.035
				c0.137,0.016,0.235,0.141,0.218,0.278C4.557,0.69,4.449,0.784,4.324,0.784z"/>
		</g>
		<g>
			<path fill="#0096D6" d="M7,6.75c-0.138,0-0.25-0.112-0.25-0.25V6.25C6.75,6.112,6.862,6,7,6s0.25,0.112,0.25,0.25V6.5
				C7.25,6.638,7.138,6.75,7,6.75z"/>
		</g>
	</g>
</g>
<g>
	<g>
		<g>
			<path fill="#0096D6" d="M2.357,7.75c-0.138,0-0.25-0.112-0.25-0.25V7.25C2.107,7.112,2.219,7,2.357,7s0.25,0.112,0.25,0.25V7.5
				C2.607,7.638,2.495,7.75,2.357,7.75z"/>
		</g>
		<g>
			<path fill="#0096D6" d="M2.357,6.492c-0.138,0-0.25-0.112-0.25-0.25V5.738c0-0.138,0.112-0.25,0.25-0.25s0.25,0.112,0.25,0.25
				v0.504C2.607,6.38,2.495,6.492,2.357,6.492z M5.143,5.479c-0.138,0-0.25-0.112-0.25-0.25V4.725c0-0.138,0.112-0.25,0.25-0.25
				s0.25,0.112,0.25,0.25v0.504C5.393,5.367,5.281,5.479,5.143,5.479z M2.357,4.98c-0.138,0-0.25-0.112-0.25-0.25V4.227
				c0-0.138,0.112-0.25,0.25-0.25s0.25,0.112,0.25,0.25V4.73C2.607,4.869,2.495,4.98,2.357,4.98z M5.113,3.967
				c-0.118,0-0.224-0.084-0.246-0.206c-0.028-0.154-0.072-0.294-0.13-0.417C4.677,3.22,4.73,3.071,4.855,3.011
				c0.123-0.061,0.272-0.007,0.333,0.118c0.078,0.163,0.136,0.346,0.171,0.543c0.024,0.136-0.066,0.266-0.202,0.291
				C5.143,3.966,5.128,3.967,5.113,3.967z M2.535,3.492c-0.036,0-0.072-0.008-0.106-0.024C2.303,3.41,2.25,3.261,2.309,3.136
				c0.088-0.189,0.204-0.352,0.344-0.484c0.101-0.095,0.258-0.089,0.354,0.01c0.095,0.1,0.09,0.258-0.01,0.354
				C2.902,3.104,2.823,3.216,2.761,3.349C2.718,3.439,2.628,3.492,2.535,3.492z M4.242,2.825c-0.026,0-0.053-0.004-0.08-0.013
				C4.041,2.771,3.902,2.75,3.75,2.75c-0.138,0-0.251-0.112-0.251-0.25s0.11-0.25,0.249-0.25H3.75c0.206,0,0.398,0.029,0.572,0.088
				c0.131,0.044,0.201,0.186,0.157,0.316C4.444,2.759,4.347,2.825,4.242,2.825z"/>
		</g>
		<g>
			<path fill="#0096D6" d="M5.143,6.75c-0.138,0-0.25-0.112-0.25-0.25V6.25C4.893,6.112,5.005,6,5.143,6s0.25,0.112,0.25,0.25V6.5
				C5.393,6.638,5.281,6.75,5.143,6.75z"/>
		</g>
	</g>
</g>
<g>
	<g>
		<g>
			<path fill="#0096D6" d="M13.643,7.75c-0.138,0-0.25-0.112-0.25-0.25V7.25c0-0.138,0.112-0.25,0.25-0.25s0.25,0.112,0.25,0.25V7.5
				C13.893,7.638,13.78,7.75,13.643,7.75z"/>
		</g>
		<g>
			<path fill="#0096D6" d="M13.643,6.492c-0.138,0-0.25-0.112-0.25-0.25V5.738c0-0.138,0.112-0.25,0.25-0.25s0.25,0.112,0.25,0.25
				v0.504C13.893,6.38,13.78,6.492,13.643,6.492z M10.857,5.479c-0.138,0-0.25-0.112-0.25-0.25V4.725c0-0.138,0.112-0.25,0.25-0.25
				s0.25,0.112,0.25,0.25v0.504C11.107,5.367,10.995,5.479,10.857,5.479z M13.643,4.98c-0.138,0-0.25-0.112-0.25-0.25V4.227
				c0-0.138,0.112-0.25,0.25-0.25s0.25,0.112,0.25,0.25V4.73C13.893,4.869,13.78,4.98,13.643,4.98z M10.888,3.967
				c-0.015,0-0.029-0.001-0.044-0.004c-0.136-0.024-0.227-0.154-0.202-0.29c0.034-0.195,0.092-0.377,0.171-0.543
				c0.058-0.125,0.206-0.177,0.333-0.119c0.124,0.06,0.178,0.208,0.118,0.333c-0.074,0.156-0.111,0.313-0.13,0.417
				C11.112,3.882,11.007,3.967,10.888,3.967z M13.465,3.492c-0.094,0-0.184-0.053-0.227-0.144c-0.062-0.132-0.141-0.244-0.235-0.333
				c-0.101-0.095-0.104-0.253-0.01-0.354c0.094-0.099,0.255-0.105,0.354-0.01c0.14,0.133,0.256,0.295,0.345,0.484
				c0.059,0.125,0.005,0.274-0.12,0.333C13.537,3.484,13.501,3.492,13.465,3.492z M11.757,2.825c-0.104,0-0.201-0.066-0.237-0.17
				c-0.044-0.131,0.026-0.273,0.157-0.317C11.851,2.28,12.043,2.25,12.25,2.25c0.138,0,0.251,0.112,0.251,0.25
				s-0.11,0.25-0.248,0.25H12.25c-0.152,0-0.291,0.021-0.413,0.062C11.811,2.821,11.783,2.825,11.757,2.825z"/>
		</g>
		<g>
			<path fill="#0096D6" d="M10.857,6.75c-0.138,0-0.25-0.112-0.25-0.25V6.25c0-0.138,0.112-0.25,0.25-0.25s0.25,0.112,0.25,0.25V6.5
				C11.107,6.638,10.995,6.75,10.857,6.75z"/>
		</g>
	</g>
</g>
<g>
	<g>
		<g>
			<path fill="#0096D6" d="M15.5,15.25c-0.138,0-0.25-0.112-0.25-0.25v-0.25c0-0.138,0.112-0.25,0.25-0.25s0.25,0.112,0.25,0.25V15
				C15.75,15.138,15.638,15.25,15.5,15.25z"/>
		</g>
		<g>
			<path fill="#0096D6" d="M15.5,13.982c-0.138,0-0.25-0.112-0.25-0.25v-0.509c0-0.138,0.112-0.25,0.25-0.25s0.25,0.112,0.25,0.25
				v0.509C15.75,13.87,15.638,13.982,15.5,13.982z M15.5,12.457c-0.138,0-0.25-0.112-0.25-0.25v-0.509c0-0.138,0.112-0.25,0.25-0.25
				s0.25,0.112,0.25,0.25v0.509C15.75,12.345,15.638,12.457,15.5,12.457z M15.5,10.931c-0.138,0-0.25-0.112-0.25-0.25v-0.509
				c0-0.138,0.112-0.25,0.25-0.25s0.25,0.112,0.25,0.25v0.509C15.75,10.818,15.638,10.931,15.5,10.931z M15.5,9.405
				c-0.138,0-0.25-0.112-0.25-0.25V8.646c0-0.138,0.112-0.25,0.25-0.25s0.25,0.112,0.25,0.25v0.509
				C15.75,9.293,15.638,9.405,15.5,9.405z M15.5,7.879c-0.138,0-0.25-0.112-0.25-0.25V7.121c0-0.138,0.112-0.25,0.25-0.25
				s0.25,0.112,0.25,0.25v0.509C15.75,7.768,15.638,7.879,15.5,7.879z M15.5,6.354c-0.138,0-0.25-0.112-0.25-0.25V5.595
				c0-0.138,0.112-0.25,0.25-0.25s0.25,0.112,0.25,0.25v0.509C15.75,6.242,15.638,6.354,15.5,6.354z M9,5.472
				c-0.138,0-0.25-0.112-0.25-0.25V4.713c0-0.138,0.112-0.25,0.25-0.25s0.25,0.112,0.25,0.25v0.509C9.25,5.36,9.138,5.472,9,5.472z
				 M15.5,4.828c-0.138,0-0.25-0.112-0.25-0.25V4.069c0-0.138,0.112-0.25,0.25-0.25s0.25,0.112,0.25,0.25v0.509
				C15.75,4.716,15.638,4.828,15.5,4.828z M9,3.946c-0.138,0-0.25-0.112-0.25-0.25V3.506c-0.004-0.07,0.004-0.178,0.027-0.354
				c0.02-0.136,0.139-0.227,0.282-0.214C9.196,2.958,9.292,3.083,9.273,3.22C9.257,3.342,9.251,3.431,9.25,3.472v0.224
				C9.25,3.834,9.138,3.946,9,3.946z M15.453,3.302c-0.119,0-0.225-0.085-0.246-0.207c-0.023-0.134-0.06-0.292-0.114-0.461
				c-0.042-0.131,0.03-0.272,0.162-0.314c0.131-0.042,0.272,0.03,0.314,0.161c0.063,0.194,0.103,0.375,0.13,0.528
				c0.024,0.136-0.066,0.266-0.202,0.29C15.482,3.301,15.467,3.302,15.453,3.302z M9.302,2.459c-0.034,0-0.069-0.007-0.103-0.022
				C9.073,2.38,9.018,2.232,9.074,2.106C9.15,1.936,9.24,1.774,9.34,1.625C9.418,1.51,9.573,1.479,9.688,1.557
				c0.114,0.077,0.145,0.232,0.068,0.347C9.671,2.029,9.595,2.167,9.529,2.312C9.488,2.404,9.396,2.459,9.302,2.459z M14.873,1.903
				c-0.076,0-0.152-0.035-0.201-0.102c-0.091-0.124-0.194-0.239-0.307-0.342c-0.102-0.094-0.107-0.252-0.014-0.354
				c0.093-0.1,0.252-0.107,0.354-0.014c0.135,0.125,0.259,0.264,0.369,0.413c0.082,0.111,0.059,0.268-0.053,0.35
				C14.977,1.887,14.925,1.903,14.873,1.903z M10.256,1.293c-0.079,0-0.157-0.038-0.206-0.108C9.972,1.071,10,0.916,10.114,0.837
				c0.15-0.103,0.313-0.194,0.483-0.27c0.127-0.056,0.274,0,0.33,0.127c0.056,0.126-0.001,0.274-0.127,0.33
				c-0.143,0.063-0.278,0.139-0.403,0.225C10.354,1.279,10.305,1.293,10.256,1.293z M13.677,0.994c-0.03,0-0.062-0.005-0.091-0.017
				c-0.139-0.054-0.287-0.1-0.448-0.136c-0.135-0.03-0.22-0.163-0.19-0.298c0.029-0.134,0.165-0.217,0.298-0.19
				c0.181,0.04,0.356,0.093,0.522,0.158c0.129,0.051,0.192,0.196,0.142,0.324C13.871,0.934,13.776,0.994,13.677,0.994z
				 M11.675,0.784c-0.125,0-0.233-0.093-0.248-0.22c-0.017-0.137,0.081-0.262,0.219-0.278c0.167-0.02,0.345-0.033,0.533-0.035
				c0.001,0,0.002,0,0.003,0c0.137,0,0.248,0.11,0.25,0.247c0.002,0.138-0.108,0.251-0.246,0.253
				c-0.17,0.002-0.33,0.013-0.481,0.031C11.694,0.783,11.685,0.784,11.675,0.784z"/>
		</g>
		<g>
			<path fill="#0096D6" d="M9,6.75c-0.138,0-0.25-0.112-0.25-0.25V6.25C8.75,6.112,8.862,6,9,6s0.25,0.112,0.25,0.25V6.5
				C9.25,6.638,9.138,6.75,9,6.75z"/>
		</g>
	</g>
</g>
</svg>
