<?xml version="1.0" encoding="utf-8"?>
<!-- Generator: Adobe Illustrator 16.0.0, SVG Export Plug-In . SVG Version: 6.00 Build 0)  -->
<!DOCTYPE svg PUBLIC "-//W3C//DTD SVG 1.1//EN" "http://www.w3.org/Graphics/SVG/1.1/DTD/svg11.dtd">
<svg version="1.1" id="Layer_1" xmlns="http://www.w3.org/2000/svg" xmlns:xlink="http://www.w3.org/1999/xlink" x="0px" y="0px"
	 width="24px" height="24px" viewBox="0 0 24 24" enable-background="new 0 0 24 24" xml:space="preserve">
<path d="M22.99,10.999c-0.11-2.46-0.98-4.71-2.391-6.53c-0.211-0.27-0.42-0.52-0.641-0.76c-2-2.17-4.82-3.56-7.96-3.7v0.02
	c-0.06,0-0.11-0.01-0.16-0.02c-0.119,0-0.229-0.01-0.339-0.01s-0.22,0.01-0.34,0.01c-0.05,0.01-0.1,0.02-0.16,0.02v-0.02
	c-3.14,0.14-5.96,1.53-7.96,3.7c-0.22,0.24-0.43,0.49-0.63,0.76c-1.42,1.82-2.29,4.07-2.4,6.53C0,11.159,0,11.329,0,11.499
	s0,0.34,0.01,0.5c0.11,2.46,0.98,4.7,2.4,6.52v0.012c0.2,0.27,0.41,0.52,0.63,0.76c2,2.17,4.82,3.561,7.96,3.7V22.97
	c0.06,0,0.11,0.01,0.16,0.021c0.12,0,0.229,0.01,0.34,0.01s0.22-0.01,0.34-0.01c0.05-0.011,0.101-0.021,0.16-0.021v0.021
	c3.141-0.142,5.96-1.53,7.96-3.7c0.22-0.24,0.431-0.49,0.64-0.76c1.41-1.82,2.28-4.07,2.392-6.53c0.01-0.16,0.01-0.33,0.01-0.5
	S23,11.159,22.99,10.999z M8.29,1.499c-0.89,0.89-1.65,2.16-2.22,3.68c-0.8-0.26-1.52-0.57-2.16-0.92
	C5.1,2.999,6.6,2.039,8.29,1.499z M3.25,5.019c0.73,0.44,1.58,0.81,2.5,1.11c-0.44,1.46-0.7,3.11-0.74,4.87h-4
	C1.12,8.739,1.94,6.679,3.25,5.019z M1.01,11.999h4c0.04,1.76,0.3,3.41,0.74,4.87c-0.92,0.3-1.77,0.67-2.5,1.101
	C1.94,16.31,1.12,14.259,1.01,11.999z M3.91,18.739c0.64-0.352,1.36-0.66,2.16-0.92c0.57,1.52,1.33,2.789,2.22,3.68
	C6.6,20.959,5.1,19.999,3.91,18.739z M11,21.949c-1.61-0.29-3.05-1.979-3.96-4.4c1.22-0.319,2.56-0.51,3.96-0.54V21.949z M11,16.009
	c-1.53,0.03-2.97,0.24-4.28,0.58c-0.42-1.38-0.67-2.939-0.71-4.59H11V16.009z M11,10.999H6.01c0.04-1.65,0.29-3.21,0.71-4.59
	c1.31,0.34,2.75,0.55,4.28,0.58V10.999z M11,5.989c-1.4-0.03-2.74-0.22-3.96-0.54c0.91-2.42,2.35-4.11,3.96-4.4V5.989z M19.09,4.259
	c-0.64,0.35-1.359,0.66-2.16,0.92c-0.57-1.52-1.33-2.79-2.22-3.68C16.4,2.039,17.9,2.999,19.09,4.259z M12,1.049
	c1.609,0.29,3.05,1.98,3.96,4.4c-1.22,0.32-2.56,0.51-3.96,0.54V1.049z M12,6.989c1.529-0.03,2.971-0.24,4.279-0.58
	c0.421,1.38,0.671,2.939,0.711,4.59H12V6.989z M12,11.999h4.99c-0.04,1.65-0.29,3.21-0.711,4.59c-1.311-0.34-2.75-0.55-4.279-0.58
	V11.999z M12,21.949v-4.94c1.4,0.03,2.74,0.221,3.96,0.54C15.05,19.97,13.609,21.659,12,21.949z M14.71,21.499
	c0.89-0.891,1.649-2.16,2.22-3.68c0.801,0.26,1.521,0.568,2.16,0.92C17.9,19.999,16.4,20.959,14.71,21.499z M19.75,17.97
	c-0.73-0.431-1.58-0.801-2.5-1.101c0.439-1.46,0.7-3.11,0.74-4.87h4C21.88,14.259,21.061,16.31,19.75,17.97z M17.99,10.999
	c-0.04-1.76-0.301-3.41-0.74-4.87c0.92-0.3,1.77-0.67,2.5-1.11c1.311,1.66,2.13,3.72,2.24,5.98H17.99z"/>
</svg>
